<?xml version="1.0" standalone="no"?>
<!DOCTYPE svg PUBLIC "-//W3C//DTD SVG 20010904//EN"
 "http://www.w3.org/TR/2001/REC-SVG-20010904/DTD/svg10.dtd">
<svg version="1.0" xmlns="http://www.w3.org/2000/svg"
 width="1500.000000pt" height="1500.000000pt" viewBox="0 0 1500.000000 1500.000000"
 preserveAspectRatio="xMidYMid meet">
<metadata>
Created by potrace 1.10, written by Peter Selinger 2001-2011
</metadata>
<g transform="translate(0.000000,1500.000000) scale(0.100000,-0.100000)"
fill="#ab36a7" stroke="none">
<path d="M3630 11758 c-14 -6 -39 -18 -57 -26 -43 -19 -69 -58 -52 -78 7 -8
14 -51 17 -95 3 -43 7 -79 11 -79 3 0 17 19 30 42 21 37 25 40 31 23 4 -11 5
-32 3 -47 -3 -15 -3 -35 1 -44 12 -30 36 4 36 51 0 36 5 48 28 65 24 20 35 22
112 16 47 -3 121 -9 165 -15 44 -5 136 -14 205 -20 69 -7 161 -16 205 -22 44
-6 133 -15 197 -19 65 -5 123 -12 129 -15 6 -4 57 -11 112 -16 56 -4 167 -15
247 -23 80 -9 199 -20 265 -26 66 -5 155 -14 198 -20 42 -5 116 -15 165 -21
104 -13 146 -25 162 -45 7 -7 16 -14 21 -14 35 0 -39 127 -98 169 -56 41 -108
58 -198 65 -44 4 -125 13 -180 21 -55 8 -152 19 -215 25 -63 7 -149 16 -190
20 -41 5 -120 13 -175 19 -112 12 -314 36 -420 51 -38 6 -115 14 -171 20 -55
5 -107 12 -115 15 -14 5 -238 24 -374 31 -39 2 -81 -2 -95 -8z"/>
<path d="M3470 11405 c0 -31 7 -72 15 -92 8 -19 15 -42 15 -50 0 -8 6 -29 13
-46 8 -18 22 -59 31 -92 10 -33 24 -75 32 -93 8 -18 14 -40 14 -48 0 -9 7 -37
15 -63 8 -25 31 -100 50 -166 20 -66 47 -149 60 -185 13 -36 31 -92 40 -125
46 -169 60 -214 105 -335 16 -41 45 -129 65 -195 20 -66 48 -152 61 -192 13
-39 24 -77 24 -83 0 -7 6 -26 13 -43 8 -18 29 -79 47 -137 17 -58 38 -121 45
-140 7 -19 20 -60 29 -90 30 -102 77 -254 122 -400 26 -80 53 -167 61 -195 8
-27 21 -63 28 -80 7 -16 20 -55 29 -85 9 -30 36 -118 60 -195 25 -77 61 -194
81 -260 20 -66 40 -128 46 -137 5 -10 9 -28 9 -40 0 -13 7 -36 15 -52 8 -15
15 -34 15 -42 0 -7 6 -28 14 -46 7 -18 21 -60 31 -93 9 -33 23 -76 30 -95 7
-19 27 -82 45 -140 60 -203 92 -305 105 -340 7 -19 27 -82 45 -140 17 -58 36
-116 42 -130 5 -13 19 -51 30 -85 12 -33 34 -79 49 -102 81 -118 236 -193 312
-151 22 12 193 32 417 47 109 8 127 7 143 -7 17 -15 21 -15 57 6 22 12 53 22
70 22 17 0 62 5 101 12 53 8 76 8 96 -1 33 -15 250 4 273 24 8 7 33 15 55 18
22 2 81 10 130 17 66 9 98 9 120 1 22 -8 47 -8 90 0 33 6 71 12 85 13 14 2 27
4 30 5 3 1 29 4 57 7 29 2 70 10 90 18 21 8 63 17 93 21 86 10 124 42 159 133
24 62 26 126 6 162 -8 14 -14 37 -15 52 0 15 -4 30 -10 33 -6 4 -10 -8 -10
-28 0 -39 -33 -87 -60 -87 -9 0 -34 -7 -53 -15 -20 -8 -58 -15 -84 -15 -26 0
-88 -7 -138 -15 -49 -8 -115 -15 -145 -15 -30 0 -104 -6 -165 -14 -118 -16
-274 -32 -450 -46 -60 -6 -175 -16 -255 -24 -80 -9 -194 -20 -255 -26 -186
-19 -476 -25 -518 -11 -49 17 -103 73 -111 116 -4 19 -11 35 -16 35 -6 0 -10
10 -10 23 -1 12 -9 40 -20 62 -11 22 -19 48 -20 58 0 9 -4 17 -10 17 -16 0
-12 -60 5 -66 10 -4 15 -20 15 -45 0 -26 5 -42 15 -45 10 -4 15 -20 15 -44 0
-21 7 -43 15 -50 36 -30 1 -109 -51 -113 -50 -4 -81 63 -174 363 -17 58 -38
121 -45 140 -8 19 -17 46 -20 60 -3 14 -10 34 -14 45 -14 35 -32 89 -45 135
-8 25 -41 135 -76 245 -62 202 -84 275 -99 330 -4 17 -13 39 -18 50 -16 31
-26 105 -15 105 6 0 24 -12 41 -26 21 -18 31 -35 31 -54 0 -16 5 -32 10 -35 6
-3 10 -15 10 -27 0 -11 6 -34 13 -51 18 -43 34 -89 58 -167 11 -36 23 -72 28
-80 5 -9 12 -30 15 -48 4 -17 12 -34 17 -37 5 -4 9 -21 9 -39 0 -19 7 -39 15
-46 9 -7 15 -29 15 -51 0 -29 4 -39 16 -39 14 0 16 -7 11 -45 -5 -33 -3 -45 6
-45 36 0 51 65 22 94 -8 8 -15 28 -15 45 0 16 -7 36 -15 45 -8 8 -15 28 -15
44 0 16 -7 35 -15 42 -8 7 -15 25 -15 39 0 15 -7 36 -15 47 -8 10 -15 31 -15
46 0 14 -6 39 -14 55 -20 38 -56 158 -56 185 0 12 -9 31 -19 42 -25 28 -12 66
23 66 14 0 28 5 32 11 4 7 22 9 47 6 52 -7 83 5 102 43 11 21 23 30 39 30 38
0 56 10 71 41 19 36 19 74 -1 107 -20 35 -88 83 -128 91 l-31 7 -3 99 c-5 147
28 242 112 332 53 57 83 73 97 52 5 -8 9 -256 9 -551 0 -474 2 -538 16 -552
11 -11 34 -16 78 -16 35 0 85 -7 112 -15 27 -8 68 -15 91 -15 23 0 53 -4 67
-10 15 -5 70 -12 124 -16 53 -3 107 -10 119 -16 12 -6 34 -7 50 -4 15 4 53 11
83 15 30 4 75 13 100 19 73 18 151 32 220 42 36 4 78 13 93 19 16 6 45 11 65
11 20 0 53 4 72 9 19 5 58 12 85 16 48 6 51 5 68 -25 14 -26 17 -55 16 -153 0
-105 -3 -128 -22 -167 -22 -45 -68 -82 -137 -110 -53 -21 -224 -25 -252 -6
-12 9 -28 16 -35 16 -17 0 -108 57 -141 87 -54 50 -106 40 -141 -26 -19 -37
-21 -58 -21 -185 0 -108 5 -161 19 -217 31 -120 60 -188 100 -230 32 -33 44
-39 80 -39 59 0 95 22 120 72 37 79 42 126 22 209 -10 41 -26 89 -35 106 -9
18 -16 39 -16 48 0 22 27 30 46 14 31 -26 198 -40 289 -24 67 12 137 51 192
107 49 51 113 155 113 185 0 8 7 36 16 64 20 60 17 247 -5 273 -7 8 -11 22 -8
29 8 22 271 74 323 64 16 -3 45 1 64 9 19 8 45 12 57 9 50 -12 315 -234 381
-319 21 -27 22 -37 20 -175 -2 -132 0 -150 18 -173 26 -35 76 -58 127 -58 52
0 60 -5 83 -54 25 -51 81 -95 130 -102 21 -3 49 -7 61 -10 13 -2 47 -37 82
-82 83 -108 125 -152 144 -152 16 0 67 68 67 89 0 5 6 22 14 38 26 53 46 104
46 118 0 29 57 52 143 58 45 4 98 11 117 17 19 5 53 10 75 10 22 0 78 6 125
14 273 47 299 50 590 55 312 6 325 8 356 55 12 19 30 27 82 36 133 22 173 44
208 112 18 34 16 108 -5 198 -13 57 -30 141 -40 205 -5 28 -13 68 -19 90 -14
55 -32 146 -92 460 -85 445 -84 440 -106 444 -10 2 -48 -2 -84 -7 -97 -17
-215 -33 -303 -42 -43 -4 -107 -14 -141 -21 -70 -13 -114 -7 -123 19 -14 38
-83 130 -123 162 -54 45 -169 109 -196 110 -11 0 -43 12 -70 26 -27 15 -70 37
-97 51 -41 21 -46 27 -41 48 9 34 -12 119 -47 192 -38 77 -113 151 -193 192
-58 29 -71 31 -167 32 -57 0 -113 -3 -124 -6 -39 -14 -84 -36 -90 -44 -3 -5
-14 -7 -25 -4 -14 4 -26 27 -46 92 -15 47 -30 90 -35 95 -5 6 -9 22 -9 36 0
14 -7 35 -15 46 -8 10 -15 30 -15 44 0 14 -6 34 -14 45 -7 11 -16 31 -19 45
-5 24 -14 51 -43 130 -7 19 -30 91 -51 158 -24 79 -44 127 -56 133 -11 6 -36
6 -70 -1 -28 -7 -111 -15 -183 -18 -105 -6 -136 -11 -151 -24 -13 -12 -36 -18
-72 -18 l-52 0 -19 45 c-10 24 -22 60 -26 80 -3 19 -10 38 -15 41 -5 3 -9 14
-9 24 0 11 -7 36 -16 57 -9 21 -23 52 -30 68 -52 125 -143 295 -193 363 -75
101 -194 203 -291 250 l-75 37 -150 0 c-160 0 -156 1 -251 -62 -23 -15 -28
-15 -52 -1 -36 22 -151 10 -207 -22 -68 -37 -134 -110 -171 -188 -66 -136 -84
-211 -114 -492 -11 -101 -6 -217 12 -288 9 -36 8 -45 -6 -61 -14 -16 -41 -19
-229 -25 -254 -8 -241 -1 -233 -126 3 -47 8 -236 11 -420 3 -184 8 -359 11
-387 l5 -53 -78 -36 c-60 -28 -94 -53 -148 -108 -64 -66 -135 -178 -135 -214
0 -7 -7 -27 -16 -44 -11 -22 -16 -65 -18 -157 -2 -87 -7 -125 -15 -123 -6 1
-16 3 -23 5 -6 1 -14 -9 -17 -22 -4 -14 -11 -26 -16 -27 -12 -4 -40 56 -50
104 -4 17 -11 32 -16 32 -5 0 -9 10 -9 23 0 12 -7 35 -15 51 -8 15 -15 37 -15
47 0 10 -11 49 -25 87 -14 38 -25 76 -25 84 0 8 -5 19 -12 26 -7 7 -11 30 -9
52 2 35 0 40 -18 40 -17 0 -21 -6 -21 -34 0 -18 7 -39 15 -46 8 -7 15 -23 15
-35 0 -13 7 -36 15 -51 8 -16 15 -39 15 -51 0 -12 5 -25 10 -28 6 -3 10 -16
10 -28 0 -13 6 -31 14 -42 7 -11 16 -33 19 -50 9 -49 27 -115 36 -133 28 -56
38 -161 20 -225 -11 -39 -29 -42 -29 -4 0 12 -25 101 -56 197 -31 96 -67 211
-80 254 -13 44 -35 112 -49 152 -14 40 -25 78 -25 84 0 7 -6 26 -13 43 -18 42
-37 97 -44 122 -4 19 -41 137 -138 450 -26 83 -54 173 -62 200 -9 28 -20 61
-24 73 -5 13 -18 52 -29 85 -11 34 -26 82 -34 107 -8 25 -31 99 -51 165 -20
66 -47 158 -62 205 -14 47 -32 108 -41 135 -8 28 -20 66 -27 85 -21 59 -133
409 -161 505 -14 50 -33 113 -41 140 -9 28 -16 66 -17 85 -1 31 2 35 27 38 21
3 27 -1 27 -15 0 -10 7 -31 15 -47 8 -15 15 -38 15 -50 0 -12 6 -31 14 -42 8
-11 16 -33 18 -49 1 -16 9 -30 16 -33 18 -6 16 67 -3 74 -10 4 -15 20 -15 44
0 21 -7 43 -15 50 -8 7 -15 24 -15 39 0 14 -7 35 -16 46 -9 12 -12 30 -9 46 6
28 -11 50 -21 26 -3 -8 -18 -24 -34 -36 l-30 -21 -14 35 c-8 19 -17 35 -20 35
-4 0 -6 -25 -6 -55z m2848 -337 c117 -29 234 -143 352 -342 57 -97 160 -308
160 -329 0 -7 5 -18 11 -24 6 -6 9 -21 7 -34 -3 -21 -10 -25 -53 -30 -27 -3
-62 -9 -77 -13 -23 -7 -29 -4 -42 22 -8 16 -20 47 -25 68 -12 52 -84 223 -118
282 -59 103 -140 211 -221 294 -73 75 -84 89 -72 102 15 19 18 19 78 4z m-441
-53 c3 -9 -1 -35 -10 -58 -37 -104 -54 -370 -39 -612 5 -77 6 -144 2 -149 -5
-4 -23 -11 -41 -15 -18 -4 -35 -13 -37 -20 -4 -11 3 -13 28 -7 45 9 60 -7 60
-65 0 -26 4 -58 9 -71 5 -13 12 -51 16 -85 7 -60 6 -61 -22 -75 -38 -18 -41
-57 -9 -112 29 -49 53 -67 120 -90 46 -16 51 -16 113 5 55 19 71 30 99 68 29
40 34 53 32 95 -3 53 -11 61 -69 71 -34 5 -35 6 -37 53 0 26 -5 81 -10 122
-13 101 -12 102 135 112 65 4 136 12 158 17 22 6 72 11 110 11 69 0 104 5 275
34 53 9 91 11 102 5 9 -5 21 -28 26 -51 6 -24 15 -58 21 -76 10 -32 9 -34 -24
-48 -45 -19 -54 -52 -29 -111 16 -37 29 -51 73 -74 114 -61 240 -22 287 88 27
63 12 123 -31 123 -57 0 -72 15 -79 77 -4 32 -10 67 -12 78 -5 19 2 22 83 33
123 18 384 30 406 20 9 -5 17 -19 17 -31 0 -12 7 -35 15 -51 8 -15 15 -34 15
-42 0 -15 80 -269 111 -349 4 -11 24 -74 44 -140 21 -66 41 -127 45 -135 4 -9
11 -31 15 -50 4 -19 11 -41 15 -50 4 -8 15 -42 25 -75 9 -33 23 -78 30 -100
116 -362 149 -463 156 -480 13 -31 39 -110 59 -184 10 -36 23 -79 29 -96 15
-42 77 -244 85 -277 5 -24 3 -28 -21 -33 -16 -3 -47 -10 -71 -15 -23 -6 -55
-10 -71 -10 -16 0 -62 -6 -102 -14 -67 -13 -149 -28 -409 -72 -47 -8 -123 -21
-170 -29 -47 -8 -128 -22 -180 -30 -52 -9 -113 -21 -135 -26 -22 -5 -69 -14
-105 -20 -89 -14 -217 -36 -325 -54 -49 -9 -119 -20 -155 -24 -36 -5 -87 -14
-115 -20 -27 -5 -113 -20 -190 -32 -77 -11 -157 -25 -177 -30 -20 -5 -67 -13
-105 -19 -37 -5 -99 -16 -138 -24 -77 -17 -85 -14 -85 40 0 17 -4 44 -10 60
-5 16 -14 72 -20 124 -5 52 -17 142 -25 200 -9 58 -20 143 -25 190 -5 47 -14
105 -19 130 -6 25 -15 88 -21 140 -31 265 -64 507 -74 550 -3 14 -10 61 -16
105 -14 116 -37 276 -44 305 -3 14 -11 63 -17 110 -15 115 -37 268 -45 306
l-6 31 89 12 c275 39 293 43 233 55 l-32 6 5 192 c7 320 48 506 138 626 40 53
65 65 76 37z m284 -133 c106 -128 190 -266 239 -395 11 -28 25 -61 29 -72 25
-54 43 -124 38 -139 -6 -16 -34 -19 -177 -21 -25 0 -52 -5 -60 -10 -18 -12
-138 -32 -162 -27 -9 2 -19 14 -22 28 -11 43 -26 264 -26 390 0 104 3 125 18
144 14 17 18 35 15 69 -6 56 10 101 34 101 10 0 43 -31 74 -68z m-836 -859 c4
-38 11 -84 15 -103 5 -19 12 -69 15 -110 3 -41 10 -93 16 -115 5 -22 14 -80
19 -130 6 -49 17 -144 25 -210 9 -66 20 -154 25 -195 5 -41 13 -102 19 -135 6
-33 22 -152 36 -265 33 -252 50 -383 69 -520 9 -58 20 -139 26 -180 6 -41 15
-102 20 -135 24 -150 24 -155 2 -155 -12 0 -24 5 -27 10 -3 6 -20 10 -37 10
-17 0 -70 7 -117 15 -47 8 -140 23 -206 33 l-120 18 -7 410 c-7 442 -13 594
-23 636 -7 25 -4 28 34 38 32 8 53 7 103 -5 35 -9 67 -21 72 -26 13 -12 43
-12 50 0 12 19 -8 43 -54 66 -58 29 -165 49 -191 35 -10 -6 -26 -10 -36 -10
-57 0 -168 -93 -224 -185 -69 -117 -87 -235 -53 -352 14 -48 22 -58 61 -81 76
-45 94 -64 96 -102 2 -32 0 -35 -30 -38 -23 -2 -35 3 -46 19 -19 26 -47 19
-47 -12 0 -13 8 -31 17 -41 15 -17 15 -20 1 -35 -22 -21 -44 -11 -69 32 -15
25 -28 35 -45 35 -13 0 -24 -5 -24 -11 0 -5 -10 -3 -22 5 -40 28 -58 21 -58
-24 0 -22 -4 -40 -10 -40 -29 0 -24 148 6 196 10 16 28 41 40 56 15 18 24 47
28 90 7 61 10 81 36 198 31 138 149 294 260 343 51 23 134 40 225 46 64 5 80
9 83 23 3 13 -9 18 -65 24 -37 4 -84 8 -103 8 l-35 1 -3 451 -2 451 46 7 c26
3 65 6 88 7 23 0 50 4 61 9 47 20 53 14 60 -57z m1842 2 c2 -6 -15 -29 -37
-52 -50 -53 -97 -64 -149 -37 -39 19 -81 53 -81 64 0 4 28 10 63 14 34 3 82
10 107 15 55 11 92 9 97 -4z m-1024 -181 c16 -16 -25 -75 -77 -109 -40 -27
-121 -12 -163 30 -18 18 -33 37 -33 43 0 5 51 13 113 17 63 4 120 11 128 16
17 10 24 11 32 3z m2127 -331 c54 -19 129 -76 160 -120 36 -53 72 -153 77
-217 5 -62 27 -95 62 -96 17 0 81 -48 81 -60 0 -5 -14 -4 -31 2 -44 15 -52 0
-28 -49 13 -26 18 -50 14 -63 -8 -26 -29 -21 -33 7 -2 12 -12 29 -23 39 -18
16 -21 16 -36 2 -14 -15 -17 -14 -38 10 -25 29 -55 25 -55 -8 0 -28 -18 -25
-30 4 -11 31 -3 60 32 112 52 78 29 182 -62 274 -82 82 -135 105 -240 105 -72
0 -91 -4 -123 -24 -43 -26 -53 -22 -63 26 -6 28 -3 33 28 47 76 36 220 40 308
9z m-77 -124 c34 -11 77 -32 95 -46 45 -34 98 -118 107 -171 6 -39 4 -46 -28
-81 -21 -24 -36 -52 -40 -78 -5 -30 -20 -54 -58 -94 -28 -30 -62 -73 -76 -96
-14 -24 -28 -43 -32 -43 -16 0 -40 37 -46 73 -4 20 -11 40 -16 43 -5 3 -9 15
-9 27 0 12 -7 35 -15 51 -8 15 -15 37 -15 48 0 11 -6 32 -14 46 -8 15 -29 74
-46 132 -17 58 -35 112 -40 121 -11 21 22 59 53 59 12 1 33 7 47 15 34 20 60
18 133 -6z m632 -415 c71 -37 195 -139 195 -161 0 -6 3 -13 8 -15 13 -6 47
-62 66 -108 10 -25 24 -58 32 -73 8 -16 14 -44 14 -63 0 -31 32 -93 53 -102 4
-2 7 -25 7 -52 0 -42 -4 -52 -31 -74 -41 -35 -83 -34 -120 3 -34 34 -40 92
-12 123 10 11 17 34 16 53 -2 54 13 32 28 -40 10 -53 16 -65 32 -65 17 0 18 5
14 43 -3 23 -9 68 -13 99 -3 32 -13 63 -20 69 -8 6 -14 24 -14 40 0 16 -3 29
-8 29 -4 0 -18 24 -32 52 -29 62 -119 155 -176 182 -21 10 -51 25 -66 32 -14
8 -35 14 -46 14 -23 0 -36 15 -27 30 11 17 48 11 100 -16z m-315 -91 c0 -7 -4
-13 -10 -13 -5 0 -10 12 -10 28 0 21 2 24 10 12 5 -8 10 -21 10 -27z m313 7
c23 -12 59 -38 81 -58 48 -46 116 -137 116 -155 0 -7 4 -17 10 -23 15 -15 26
-109 12 -100 -7 4 -12 16 -12 26 0 38 -53 130 -78 137 -13 3 -72 -2 -130 -11
-59 -8 -152 -23 -207 -31 -56 -8 -156 -15 -223 -15 -109 0 -124 -2 -142 -20
-11 -11 -20 -27 -20 -36 0 -13 -3 -14 -14 -4 -16 12 -14 20 15 87 20 43 117
156 152 174 16 9 25 5 51 -20 21 -21 42 -31 61 -31 54 1 134 35 172 75 32 33
40 37 75 32 21 -3 57 -15 81 -27z m-489 1 c3 -4 -11 -24 -32 -43 -53 -48 -89
-92 -97 -117 -7 -24 -25 -28 -25 -5 0 16 44 77 99 137 36 38 46 43 55 28z
m1370 -153 c2 -7 10 -47 19 -88 23 -110 44 -216 61 -295 8 -38 21 -104 30
-145 8 -41 31 -160 51 -265 33 -180 51 -272 77 -392 13 -62 0 -103 -41 -132
-29 -20 -148 -48 -158 -37 -11 11 -21 131 -32 371 -5 121 -14 288 -20 370 -6
83 -15 233 -21 334 -5 101 -12 186 -15 190 -4 3 -112 8 -241 11 -143 3 -235 9
-237 15 -2 12 90 29 267 50 72 9 132 18 135 20 11 11 122 4 125 -7z m-2154
-769 c0 -32 -3 -59 -8 -59 -4 0 -18 10 -32 23 -14 12 -38 30 -53 40 -43 28
-32 51 28 57 28 3 53 4 58 2 4 -2 7 -30 7 -63z m-166 9 c17 -11 73 -69 124
-127 111 -128 105 -119 195 -256 40 -60 103 -150 139 -200 76 -105 218 -263
233 -260 6 1 12 76 16 186 6 187 11 215 57 297 20 34 76 30 112 -8 29 -31 35
-52 45 -155 7 -62 -7 -204 -25 -259 -5 -17 -28 -89 -51 -161 -23 -71 -45 -134
-50 -139 -13 -15 -39 14 -123 137 -97 141 -119 172 -159 220 -18 22 -43 56
-57 76 -66 96 -197 249 -323 376 -141 143 -200 194 -271 231 -39 21 -39 22
-17 33 18 10 78 26 115 30 6 1 24 -9 40 -21z m-739 -249 c0 -154 -16 -220 -73
-307 -59 -89 -111 -127 -208 -147 -73 -15 -95 -16 -162 -6 -83 14 -181 39
-197 51 -5 4 -27 13 -48 18 -31 9 -39 8 -44 -4 -3 -8 3 -25 14 -37 11 -12 32
-44 47 -70 87 -160 89 -325 4 -375 -26 -15 -29 -15 -54 4 -29 21 -35 29 -58
84 -70 165 -90 491 -32 539 11 9 24 2 64 -36 89 -86 197 -133 305 -133 85 0
166 23 233 65 56 36 84 70 109 132 19 49 17 221 -5 292 -11 35 -11 44 0 51 7
5 18 6 25 4 6 -3 22 0 36 5 13 5 29 8 34 7 6 -2 10 -56 10 -137z m1805 -516
c10 -9 -27 -23 -62 -23 -42 0 -57 14 -31 28 15 9 81 5 93 -5z m-571 -32 c20
-25 28 -42 21 -46 -16 -10 -80 43 -80 66 0 31 26 22 59 -20z m-2753 -547 c25
-26 31 -44 14 -44 -15 0 -50 38 -50 55 0 21 9 19 36 -11z"/>
<path d="M6885 9665 c-11 -8 -30 -22 -42 -31 -15 -11 -23 -27 -23 -45 0 -24 4
-29 24 -29 13 0 29 7 36 15 16 19 107 20 129 1 22 -18 63 -27 81 -16 12 7 12
12 0 34 -7 14 -17 26 -21 26 -4 0 -14 6 -21 13 -22 21 -87 47 -116 47 -15 0
-36 -7 -47 -15z"/>
<path d="M6370 9588 c-59 -40 -70 -57 -67 -93 3 -41 36 -45 61 -7 19 29 84 72
109 72 8 0 20 -7 27 -15 7 -8 23 -15 36 -15 20 0 24 5 24 28 0 20 -8 32 -31
45 -48 27 -106 22 -159 -15z"/>
<path d="M6943 9455 c-17 -7 -44 -33 -60 -57 -27 -41 -28 -48 -28 -163 0 -136
15 -183 76 -243 73 -71 147 -53 215 53 15 25 19 49 19 141 0 116 -12 159 -58
207 -23 23 -34 14 -19 -16 43 -86 56 -211 31 -288 -16 -48 -67 -99 -99 -99
-31 0 -90 58 -110 108 -16 41 -12 45 25 26 43 -22 76 -14 102 25 30 45 29 75
-4 105 l-27 25 27 10 c31 12 34 35 12 77 -19 37 -19 64 0 64 12 0 12 3 -2 20
-20 23 -55 25 -100 5z"/>
<path d="M6440 9383 c-48 -18 -90 -101 -90 -180 0 -37 32 -158 51 -194 7 -13
33 -45 58 -72 71 -74 148 -75 202 -4 22 29 24 41 24 143 0 66 -5 117 -12 125
-6 8 -14 25 -18 39 -9 30 -66 109 -79 110 -5 0 -17 6 -25 14 -18 16 -88 28
-111 19z m111 -55 c62 -46 99 -139 99 -252 0 -62 -4 -86 -21 -112 -18 -30 -26
-34 -61 -34 -25 0 -49 8 -65 20 -28 22 -73 79 -73 92 0 12 38 10 45 -2 3 -5
17 -10 30 -10 29 0 62 40 71 87 6 30 3 39 -20 60 -25 23 -26 27 -12 47 13 20
12 27 -2 57 -9 19 -20 36 -24 37 -9 4 -11 32 -3 32 3 0 19 -10 36 -22z"/>
<path d="M6794 9000 c-39 -16 -72 -99 -48 -123 11 -11 45 13 54 39 6 14 18 24
29 24 23 0 31 -18 21 -45 -9 -24 5 -55 25 -55 22 0 45 41 45 81 0 63 -65 104
-126 79z"/>
<path d="M7194 8892 c-38 -47 -85 -97 -104 -109 -19 -12 -42 -29 -51 -38 -9
-8 -23 -15 -33 -15 -9 0 -31 -8 -49 -17 -26 -13 -59 -17 -170 -16 -140 1 -166
6 -249 49 -14 8 -33 14 -42 14 -9 0 -16 5 -16 10 0 6 -8 10 -19 10 -10 0 -29
8 -42 18 -50 37 -140 75 -151 64 -15 -15 13 -56 60 -86 20 -13 43 -31 51 -40
7 -9 22 -16 32 -16 10 0 20 -4 23 -9 6 -10 65 -38 126 -60 60 -23 202 -42 275
-38 170 10 361 126 425 258 20 44 26 94 12 103 -5 3 -40 -34 -78 -82z"/>
<path d="M3650 11391 c0 -17 5 -33 10 -36 6 -4 10 8 10 29 0 20 -4 36 -10 36
-5 0 -10 -13 -10 -29z"/>
<path d="M3680 11294 c0 -14 6 -40 14 -57 8 -18 16 -43 19 -57 6 -29 23 -81
42 -125 8 -16 16 -42 19 -57 4 -16 11 -28 16 -28 15 0 12 44 -5 66 -8 10 -15
30 -15 44 0 14 -7 38 -15 54 -8 15 -15 36 -15 45 0 9 -7 29 -15 44 -8 15 -17
43 -21 62 -7 41 -24 47 -24 9z"/>
<path d="M3680 11076 c0 -14 5 -28 10 -31 6 -4 10 7 10 24 0 17 -4 31 -10 31
-5 0 -10 -11 -10 -24z"/>
<path d="M3704 10995 c-3 -8 -3 -19 1 -25 11 -18 25 -11 25 15 0 27 -17 34
-26 10z"/>
<path d="M3807 10943 c-9 -14 3 -73 14 -73 11 0 11 37 0 64 -5 12 -10 15 -14
9z"/>
<path d="M3734 10915 c-8 -19 2 -45 16 -45 5 0 10 14 10 30 0 31 -16 41 -26
15z"/>
<path d="M5079 10854 c-14 -17 -33 -48 -45 -74 -4 -8 -10 -17 -14 -20 -6 -4
-67 -102 -105 -168 -5 -10 -21 -33 -35 -52 -32 -45 -48 -71 -56 -92 -3 -10 -9
-18 -13 -18 -3 0 -18 -21 -31 -47 -14 -26 -31 -54 -37 -61 -7 -7 -13 -20 -13
-28 0 -8 -3 -14 -7 -14 -5 0 -20 -21 -36 -48 -42 -73 -50 -84 -79 -123 -16
-20 -28 -39 -28 -42 0 -3 -13 -26 -30 -50 -33 -50 -36 -57 -17 -57 15 1 145
198 190 290 6 14 17 31 24 38 7 7 13 19 13 27 0 7 7 15 15 19 8 3 15 10 15 17
0 6 12 28 28 48 15 20 32 45 39 56 7 11 58 95 115 187 57 93 107 177 113 188
5 11 13 20 17 20 5 0 8 5 8 10 0 15 -16 12 -31 -6z"/>
<path d="M3842 10820 c0 -19 2 -27 5 -17 2 9 2 25 0 35 -3 9 -5 1 -5 -18z"/>
<path d="M3756 10823 c-8 -19 8 -38 23 -29 16 10 13 46 -3 46 -8 0 -17 -8 -20
-17z"/>
<path d="M3784 10735 c-4 -8 -3 -23 0 -32 6 -15 8 -15 16 -3 13 20 12 50 0 50
-6 0 -13 -7 -16 -15z"/>
<path d="M3815 10648 c-4 -10 -4 -26 0 -35 8 -17 8 -17 12 0 3 9 3 25 0 35 -4
16 -4 16 -12 0z"/>
<path d="M5159 10533 c-19 -27 -38 -55 -42 -63 -4 -8 -16 -28 -27 -45 -11 -16
-23 -38 -26 -47 -4 -10 -10 -18 -14 -18 -5 0 -12 -10 -16 -22 -6 -21 -62 -118
-73 -128 -11 -10 -51 -69 -51 -76 0 -3 -13 -23 -30 -44 -29 -36 -39 -70 -22
-70 9 0 43 44 55 70 4 8 16 29 27 45 10 17 29 50 42 75 13 25 25 47 28 50 12
12 50 70 50 76 0 3 14 23 30 44 17 21 30 41 30 45 0 4 14 24 30 45 17 21 30
42 30 48 0 5 7 15 15 22 16 13 21 40 7 40 -4 0 -24 -21 -43 -47z"/>
<path d="M3840 10550 c0 -11 5 -20 10 -20 6 0 10 9 10 20 0 11 -4 20 -10 20
-5 0 -10 -9 -10 -20z"/>
<path d="M3870 10465 c1 -26 2 -28 11 -12 8 14 8 22 0 30 -8 8 -11 3 -11 -18z"/>
<path d="M3954 10408 c4 -18 11 -34 16 -36 6 -2 10 -16 10 -31 0 -15 7 -36 15
-47 8 -10 15 -33 15 -50 0 -17 7 -37 15 -44 8 -7 15 -27 15 -44 0 -18 7 -41
15 -52 8 -10 15 -26 15 -34 0 -8 9 -33 20 -55 11 -22 19 -50 20 -62 0 -13 5
-23 11 -23 12 0 3 59 -12 75 -5 5 -9 18 -9 30 0 22 -24 102 -45 150 -8 17 -17
45 -20 63 -4 17 -11 32 -16 32 -5 0 -9 10 -9 23 0 12 -6 34 -14 49 -8 15 -17
40 -21 57 -9 42 -29 41 -21 -1z"/>
<path d="M3950 10221 c0 -11 5 -23 10 -26 6 -4 10 5 10 19 0 14 -4 26 -10 26
-5 0 -10 -9 -10 -19z"/>
<path d="M3980 10130 c0 -16 5 -30 10 -30 6 0 10 14 10 30 0 17 -4 30 -10 30
-5 0 -10 -13 -10 -30z"/>
<path d="M4004 10055 c-8 -19 2 -45 16 -45 5 0 10 14 10 30 0 31 -16 41 -26
15z"/>
<path d="M4030 9954 c0 -31 23 -28 28 4 2 15 -2 22 -12 22 -11 0 -16 -9 -16
-26z"/>
<path d="M4057 9893 c-10 -10 -8 -51 2 -58 11 -6 31 26 31 49 0 16 -21 22 -33
9z"/>
<path d="M4142 9870 c0 -19 2 -27 5 -17 2 9 2 25 0 35 -3 9 -5 1 -5 -18z"/>
<path d="M4080 9786 c0 -18 7 -39 15 -46 8 -7 15 -27 15 -46 0 -18 5 -36 10
-39 6 -3 10 -13 10 -22 0 -8 6 -29 14 -46 8 -18 16 -43 19 -57 5 -27 22 -76
44 -127 7 -17 13 -40 13 -51 0 -12 5 -24 10 -27 6 -3 10 -21 10 -39 0 -19 7
-39 15 -46 8 -7 15 -28 15 -47 0 -27 4 -34 18 -31 22 4 28 51 8 68 -9 7 -16
27 -16 45 0 18 -7 38 -15 45 -8 7 -15 25 -15 41 0 15 -7 34 -15 43 -8 8 -15
27 -15 43 0 15 -7 37 -15 47 -8 11 -15 30 -15 42 0 12 -7 35 -15 50 -8 16 -15
39 -15 51 0 12 -4 25 -10 28 -5 3 -10 20 -10 36 0 17 -6 32 -15 35 -11 5 -13
16 -9 45 6 35 4 39 -15 39 -17 0 -21 -6 -21 -34z"/>
<path d="M4190 9677 c0 -14 7 -44 15 -67 8 -23 15 -53 15 -65 0 -12 6 -28 14
-35 8 -6 16 -25 18 -42 4 -37 28 -51 28 -16 0 13 -7 36 -15 51 -8 15 -17 43
-21 62 -3 19 -12 39 -20 46 -8 6 -14 26 -14 45 0 18 -4 36 -10 39 -6 3 -10 -4
-10 -18z"/>
<path d="M4280 9386 c0 -33 14 -55 27 -42 9 8 -7 76 -17 76 -6 0 -10 -15 -10
-34z"/>
<path d="M4310 9301 c0 -28 15 -49 27 -38 8 8 -7 67 -18 67 -5 0 -9 -13 -9
-29z"/>
<path d="M4340 9206 c0 -26 15 -43 24 -28 7 12 -4 52 -15 52 -5 0 -9 -11 -9
-24z"/>
<path d="M4302 9108 c-12 -47 -10 -53 13 -44 21 8 29 31 21 61 -9 37 -22 30
-34 -17z"/>
<path d="M4326 9028 c-10 -38 -7 -58 9 -58 19 0 38 36 30 60 -9 27 -31 25 -39
-2z"/>
<path d="M4460 8800 c0 -16 5 -30 10 -30 6 0 10 14 10 30 0 17 -4 30 -10 30
-5 0 -10 -13 -10 -30z"/>
<path d="M4490 8713 c0 -10 5 -25 10 -33 7 -11 10 -7 10 18 0 17 -4 32 -10 32
-5 0 -10 -8 -10 -17z"/>
<path d="M4520 8616 c0 -26 15 -43 24 -28 7 12 -4 52 -15 52 -5 0 -9 -11 -9
-24z"/>
<path d="M4550 8531 c0 -31 14 -49 25 -32 8 13 -5 61 -16 61 -5 0 -9 -13 -9
-29z"/>
<path d="M7050 7870 c0 -19 3 -21 12 -12 9 9 9 15 0 24 -9 9 -12 7 -12 -12z"/>
<path d="M4763 7844 c-3 -8 -1 -20 6 -27 8 -8 11 -4 11 16 0 30 -7 35 -17 11z"/>
<path d="M4790 7746 c0 -27 16 -44 23 -24 5 18 -3 48 -14 48 -5 0 -9 -11 -9
-24z"/>
<path d="M4820 7661 c0 -32 14 -49 25 -31 9 15 -3 60 -15 60 -6 0 -10 -13 -10
-29z"/>
<path d="M4850 7576 c0 -27 16 -44 23 -24 5 18 -3 48 -14 48 -5 0 -9 -11 -9
-24z"/>
<path d="M4872 7325 c-14 -31 -16 -72 -3 -79 14 -9 43 43 39 71 -4 36 -22 39
-36 8z"/>
<path d="M4946 7314 c-3 -9 -2 -23 4 -32 7 -14 9 -10 10 16 0 35 -5 41 -14 16z"/>
<path d="M4896 7234 c-9 -25 -7 -62 5 -69 15 -10 20 -2 26 44 4 32 2 41 -10
41 -8 0 -18 -7 -21 -16z"/>
<path d="M7290 7156 c0 -14 5 -26 10 -26 6 0 10 9 10 19 0 11 -4 23 -10 26 -6
4 -10 -5 -10 -19z"/>
<path d="M4920 7116 c0 -19 4 -37 9 -41 5 -3 12 -19 16 -36 4 -17 13 -42 21
-57 8 -15 14 -35 14 -44 0 -9 5 -20 10 -23 6 -3 10 -19 10 -35 0 -16 4 -31 9
-35 5 -3 13 -20 17 -37 3 -18 10 -39 15 -48 4 -8 10 -23 13 -32 3 -10 12 -18
21 -18 20 0 20 49 0 56 -8 4 -15 17 -15 31 0 14 -6 37 -13 51 -38 74 -83 213
-89 272 -2 14 -10 26 -20 28 -14 3 -18 -4 -18 -32z"/>
<path d="M5000 7106 c0 -14 5 -28 10 -31 6 -3 10 5 10 19 0 14 -4 28 -10 31
-6 3 -10 -5 -10 -19z"/>
<path d="M7320 7078 c0 -16 5 -28 10 -28 13 0 13 20 0 40 -8 12 -10 9 -10 -12z"/>
<path d="M6720 6319 c-30 -12 -27 -9 -35 -40 -13 -53 62 -89 113 -53 25 17 30
65 9 82 -20 17 -60 22 -87 11z"/>
<path d="M5273 6252 c-33 -5 -28 -19 13 -38 20 -9 40 -28 45 -41 14 -38 11
-523 -4 -552 -6 -13 -28 -30 -47 -36 -19 -7 -35 -18 -35 -26 0 -20 358 -20
430 0 152 43 232 117 268 247 22 77 21 104 -2 187 -34 117 -104 191 -224 235
-30 11 -97 18 -232 21 -104 4 -200 5 -212 3z m372 -48 c55 -22 120 -88 146
-147 21 -46 24 -67 23 -172 0 -136 -15 -185 -75 -243 -61 -60 -200 -80 -263
-38 l-26 16 0 289 c0 303 0 302 45 314 30 8 109 -2 150 -19z"/>
<path d="M6225 6056 c-70 -14 -99 -31 -114 -63 -16 -35 -13 -57 10 -87 39 -50
98 -24 68 30 -42 79 113 134 177 63 24 -26 33 -139 13 -156 -8 -6 -50 -16 -94
-23 -44 -7 -98 -18 -121 -26 -106 -37 -138 -152 -62 -226 30 -29 32 -30 117
-26 70 2 92 7 118 26 34 24 56 20 91 -15 15 -15 118 -18 127 -3 3 5 -7 16 -23
24 -16 8 -33 23 -38 33 -4 10 -10 97 -14 193 -4 124 -10 181 -19 196 -19 29
-57 50 -106 58 -22 4 -47 9 -55 10 -8 2 -42 -2 -75 -8z m158 -277 c18 -29 -2
-108 -38 -147 -31 -34 -38 -37 -90 -37 -66 0 -85 17 -85 75 0 61 32 91 120
116 55 16 80 14 93 -7z"/>
<path d="M6750 6060 c-14 -4 -44 -13 -67 -19 -41 -11 -61 -41 -28 -41 8 0 24
-9 35 -20 18 -18 20 -33 20 -193 0 -191 0 -192 -65 -217 -23 -9 -26 -13 -15
-20 17 -11 219 -14 244 -4 23 9 20 22 -6 30 -57 17 -58 20 -58 246 0 193 -6
250 -28 247 -4 0 -18 -4 -32 -9z"/>
<path d="M7114 6051 c-104 -25 -154 -114 -111 -198 21 -39 46 -55 132 -83 136
-43 163 -68 150 -136 -8 -43 -43 -64 -105 -64 -85 0 -143 46 -118 93 14 28 2
47 -30 47 -36 0 -62 -28 -62 -66 0 -71 62 -105 189 -106 105 0 150 17 187 71
18 26 24 49 24 88 0 71 -29 98 -153 142 -53 19 -107 45 -121 58 -34 31 -36 86
-3 107 57 36 145 31 171 -9 15 -22 15 -28 2 -54 -18 -33 -13 -41 25 -41 88 0
73 124 -19 150 -42 11 -112 12 -158 1z"/>
<path d="M7455 6040 c-3 -5 10 -17 29 -27 27 -12 42 -31 64 -77 60 -126 162
-385 162 -413 0 -27 -38 -97 -71 -131 -54 -55 -143 -36 -126 28 6 24 -10 50
-31 50 -36 0 -62 -29 -62 -69 0 -59 47 -101 115 -101 74 0 127 43 178 144 61
122 107 226 107 241 0 9 6 29 13 43 15 28 23 47 79 177 34 80 40 86 112 115
48 19 13 30 -96 30 -90 0 -134 -12 -91 -26 39 -12 48 -22 46 -54 -1 -32 -21
-87 -49 -142 -8 -14 -14 -35 -14 -46 0 -12 -5 -24 -11 -27 -5 -4 -14 -18 -20
-32 -20 -52 -41 -20 -114 177 -19 49 -41 88 -65 113 -35 34 -42 37 -93 37 -31
0 -59 -4 -62 -10z"/>
</g>
</svg>
